<?xml version="1.0" standalone="no"?>
<!DOCTYPE svg PUBLIC "-//W3C//DTD SVG 20010904//EN"
 "http://www.w3.org/TR/2001/REC-SVG-20010904/DTD/svg10.dtd">
<svg version="1.0" xmlns="http://www.w3.org/2000/svg"
 width="640.000000pt" height="640.000000pt" viewBox="0 0 640.000000 640.000000"
 preserveAspectRatio="xMidYMid meet">
<metadata>
Created by potrace 1.14, written by Peter Selinger 2001-2017
</metadata>
<g transform="translate(0.000000,640.000000) scale(0.100000,-0.100000)"
fill="#000000" stroke="none">
<path d="M2217 4533 c-28 -12 -39 -23 -44 -44 -3 -15 -15 -35 -27 -42 -11 -8
-34 -27 -51 -42 -120 -107 -218 -158 -395 -206 -118 -32 -146 -42 -212 -71
-37 -17 -68 -34 -68 -38 0 -4 -11 -12 -24 -18 -26 -12 -53 -32 -97 -74 -16
-15 -29 -26 -29 -23 0 2 -13 -9 -28 -23 -148 -143 -210 -174 -511 -262 -144
-42 -244 -100 -366 -213 l-60 -55 24 -43 c14 -24 29 -53 35 -64 6 -11 16 -23
21 -27 6 -4 6 -8 2 -8 -5 0 0 -12 11 -27 10 -16 41 -68 67 -118 73 -136 353
-648 365 -665 5 -8 26 -46 46 -85 20 -38 45 -82 56 -98 11 -15 17 -27 14 -27
-2 0 10 -24 27 -54 43 -73 91 -160 92 -166 0 -3 5 -13 11 -24 11 -17 15 -16
70 25 33 23 61 46 62 51 2 4 7 8 11 8 5 0 41 22 82 49 40 27 77 48 80 45 4 -2
13 2 21 9 7 7 40 24 73 37 33 12 78 31 100 40 22 10 71 30 108 45 98 39 206
102 332 194 61 44 115 84 120 88 15 13 105 69 150 93 22 12 96 44 165 72 69
27 142 58 163 68 22 11 45 20 53 20 8 0 14 3 14 8 0 4 20 16 45 27 25 11 45
22 45 25 0 3 21 18 48 35 26 16 52 34 58 40 6 5 22 17 34 25 12 8 33 23 46 33
27 21 15 37 123 -155 l72 -128 -138 -242 c-76 -134 -141 -244 -145 -246 -5 -2
-8 -8 -8 -13 0 -5 -35 -69 -77 -142 -42 -72 -86 -150 -97 -172 -11 -22 -23
-42 -26 -45 -10 -8 -90 -156 -90 -166 0 -5 18 -19 40 -31 l40 -21 18 26 c11
15 45 74 78 132 32 58 63 113 69 122 5 9 17 29 26 45 8 15 64 114 124 218 60
105 115 201 122 215 8 14 28 48 44 75 16 28 39 69 51 93 12 23 24 42 27 42 7
0 114 -188 119 -207 2 -7 8 -13 13 -13 5 0 9 -6 9 -14 0 -7 9 -25 21 -40 11
-14 17 -26 13 -26 -4 0 0 -8 8 -17 20 -24 73 -118 67 -119 -2 -1 3 -10 12 -20
9 -11 29 -44 45 -74 15 -30 33 -62 40 -70 6 -8 24 -37 38 -65 15 -27 31 -57
37 -65 5 -8 29 -51 54 -95 24 -44 48 -78 52 -76 5 3 17 13 27 23 11 10 25 18
32 18 6 0 14 7 18 15 3 8 1 15 -4 15 -5 0 -16 15 -24 33 -16 34 -58 109 -66
117 -3 3 -11 16 -18 30 -6 14 -28 52 -47 85 -20 33 -38 67 -42 75 -3 8 -12 22
-18 30 -7 8 -26 40 -42 70 -33 60 -71 129 -113 199 -14 26 -29 53 -33 61 -4 8
-18 33 -32 55 -14 22 -31 51 -37 65 -7 14 -25 46 -41 72 -25 41 -26 49 -15 70
7 13 16 25 19 28 4 3 9 15 13 27 4 13 13 29 19 36 7 7 24 35 39 62 15 28 31
50 36 50 10 0 47 -28 110 -83 43 -38 133 -97 188 -125 41 -21 200 -73 248 -81
34 -6 134 -42 156 -56 14 -9 36 -21 50 -28 27 -13 57 -31 76 -47 88 -71 88
-71 160 -135 44 -39 140 -110 148 -110 5 0 20 -8 34 -18 33 -23 112 -53 212
-82 152 -44 176 -53 250 -88 71 -34 158 -96 244 -176 43 -39 56 -44 56 -22 0
7 9 25 20 39 11 14 20 32 20 40 0 9 3 17 8 19 4 2 14 17 24 35 9 17 51 98 94
180 42 81 80 153 84 158 4 6 31 55 60 110 55 105 111 210 165 310 18 33 51 96
75 140 23 44 58 109 78 145 125 233 124 231 110 248 -7 9 -46 50 -88 90 -110
108 -211 153 -420 189 -19 3 -41 6 -47 6 -7 0 -13 4 -13 9 0 5 -4 7 -9 3 -10
-5 -83 16 -136 40 -54 25 -125 81 -224 177 -102 100 -144 134 -203 167 -48 26
-158 62 -169 55 -5 -3 -9 -2 -9 3 0 4 -15 8 -33 9 -46 2 -186 33 -227 52 -19
8 -37 16 -40 16 -36 9 -265 207 -253 220 13 13 -12 46 -43 56 -31 11 -37 10
-49 -7 -8 -10 -15 -21 -15 -24 0 -4 -32 -62 -72 -130 -39 -68 -79 -138 -89
-155 -9 -17 -23 -42 -31 -55 -7 -13 -19 -32 -27 -41 -8 -10 -10 -18 -5 -18 5
0 4 -4 -2 -8 -5 -4 -28 -38 -49 -77 -22 -38 -48 -83 -58 -100 -9 -16 -20 -38
-23 -47 -4 -10 -10 -18 -15 -18 -5 0 -9 -5 -9 -11 0 -6 -22 -48 -50 -95 -27
-47 -50 -86 -50 -88 0 -2 -17 -33 -39 -67 -21 -35 -55 -95 -76 -134 -21 -38
-41 -72 -45 -75 -3 -3 -14 -21 -23 -40 -10 -19 -32 -60 -50 -90 -17 -31 -63
-111 -102 -179 l-70 -123 -20 26 c-21 28 -63 102 -115 201 -18 32 -40 70 -51
83 -10 14 -19 28 -19 32 0 9 -128 231 -141 245 -5 5 -9 17 -9 27 0 10 -5 18
-10 18 -6 0 -14 10 -19 23 -5 12 -30 57 -55 100 -25 43 -46 80 -46 82 0 3 -18
34 -40 70 -22 36 -40 67 -40 70 0 2 -24 45 -54 94 -30 49 -51 92 -48 95 3 3 0
6 -6 6 -7 0 -12 4 -12 10 0 5 -17 38 -38 72 -21 35 -41 68 -43 73 -4 10 -122
217 -140 245 -5 8 -19 34 -32 56 l-22 42 -38 -15z"/>
<path d="M4780 1726 c0 -2 8 -10 18 -17 15 -13 16 -12 3 4 -13 16 -21 21 -21
13z"/>
</g>
</svg>
